<svg xmlns="http://www.w3.org/2000/svg" viewBox="0 0 320 320"><path fill="#7A222E" d="M310 0h10v320h-10z"/><path fill="#ED1B24" d="M10 0h10v320H10z"/><path fill="#7A222E" d="M0 0h10v320H0zM20 0h10v320H20z"/><path fill="#ED1B24" d="M30 0h10v320H30zM50 0h10v320H50z"/><path fill="#7A222E" d="M40 0h10v320H40zM60 0h10v320H60z"/><path fill="#ED1B24" d="M70 0h10v320H70zM90 0h10v320H90z"/><path fill="#7A222E" d="M80 0h10v320H80zM100 0h10v320h-10z"/><path fill="#ED1B24" d="M110 0h10v320h-10zM130 0h10v320h-10z"/><path fill="#7A222E" d="M120 0h10v320h-10zM140 0h10v320h-10z"/><path fill="#ED1B24" d="M150 0h10v320h-10z"/><path fill="#7A222E" d="M170 0h10v320h-10z"/><path fill="#ED1B24" d="M160 0h10v320h-10zM180 0h10v320h-10z"/><path fill="#7A222E" d="M190 0h10v320h-10zM210 0h10v320h-10z"/><path fill="#ED1B24" d="M200 0h10v320h-10zM220 0h10v320h-10z"/><path fill="#7A222E" d="M230 0h10v320h-10zM250 0h10v320h-10z"/><path fill="#ED1B24" d="M240 0h10v320h-10zM260 0h10v320h-10z"/><path fill="#7A222E" d="M270 0h10v320h-10zM290 0h10v320h-10z"/><path fill="#ED1B24" d="M280 0h10v320h-10zM300 0h10v320h-10zM310 80h10v160h-10z"/><path fill="#7A222E" d="M10 80h10v160H10z"/><path fill="#ED1B24" d="M0 80h10v160H0zM20 80h10v160H20z"/><path fill="#7A222E" d="M30 80h10v160H30zM50 80h10v160H50z"/><path fill="#ED1B24" d="M40 80h10v160H40zM60 80h10v160H60z"/><path fill="#7A222E" d="M70 80h10v160H70zM90 80h10v160H90z"/><path fill="#ED1B24" d="M80 80h10v160H80zM100 80h10v160h-10z"/><path fill="#7A222E" d="M110 80h10v160h-10zM130 80h10v160h-10z"/><path fill="#ED1B24" d="M120 80h10v160h-10zM140 80h10v160h-10z"/><path fill="#7A222E" d="M150 80h10v160h-10z"/><path fill="#ED1B24" d="M170 80h10v160h-10z"/><path fill="#7A222E" d="M160 80h10v160h-10zM180 80h10v160h-10z"/><path fill="#ED1B24" d="M190 80h10v160h-10zM210 80h10v160h-10z"/><path fill="#7A222E" d="M200 80h10v160h-10zM220 80h10v160h-10z"/><path fill="#ED1B24" d="M230 80h10v160h-10zM250 80h10v160h-10z"/><path fill="#7A222E" d="M240 80h10v160h-10zM260 80h10v160h-10z"/><path fill="#ED1B24" d="M270 80h10v160h-10zM290 80h10v160h-10z"/><path fill="#7A222E" d="M280 80h10v160h-10zM300 80h10v160h-10z"/><g fill-rule="evenodd" clip-rule="evenodd"><path fill="#ED1B24" d="M160 160.045L80.027 80.072 160 .1l79.974 79.973z"/><path fill="#7A222E" d="M320 0v160l-80-80zM0 0l80 80-80 80z"/></g><g fill-rule="evenodd" clip-rule="evenodd"><path fill="#7A222E" d="M160 320.046l-79.974-79.973L160 160.1l79.973 79.973z"/><path fill="#ED1B24" d="M320 160v160l-80-80zM0 160l80 80-80 80z"/></g></svg>