<svg xmlns="http://www.w3.org/2000/svg" viewBox="0 0 339.4 169.7"><path fill-rule="evenodd" clip-rule="evenodd" fill="#7A222E" d="M106.1 0h10.6v85.9h-10.6z"/><path fill-rule="evenodd" clip-rule="evenodd" fill="#ED1B24" d="M93 0h13.1v85.9H93z"/><path fill-rule="evenodd" clip-rule="evenodd" fill="#7A222E" d="M84.8 0h10.6v85.9H84.8zM74.2 84.9h10.6v84.9H74.2z"/><path fill-rule="evenodd" clip-rule="evenodd" fill="#ED1B24" d="M63.6 84.9h10.6v84.9H63.6z"/><path fill-rule="evenodd" clip-rule="evenodd" fill="#7A222E" d="M53 84.9h10.6v84.9H53z"/><path fill-rule="evenodd" clip-rule="evenodd" fill="#ED1B24" d="M42.4 84.9H53v84.9H42.4z"/><path fill-rule="evenodd" clip-rule="evenodd" fill="#7A222E" d="M31.8 84.9h10.6v84.9H31.8z"/><path fill-rule="evenodd" clip-rule="evenodd" fill="#ED1B24" d="M21.2 84.9h10.6v84.9H21.2z"/><path fill-rule="evenodd" clip-rule="evenodd" fill="#7A222E" d="M10.6 84.9h10.6v84.9H10.6z"/><path fill-rule="evenodd" clip-rule="evenodd" fill="#ED1B24" d="M0 84.9h10.6v84.9H0zM74.2 0h10.6v85H74.2z"/><path fill-rule="evenodd" clip-rule="evenodd" fill="#7A222E" d="M63.6 0h10.6v85.9H63.6z"/><path fill-rule="evenodd" clip-rule="evenodd" fill="#ED1B24" d="M53 0h10.6v85.9H53z"/><path fill-rule="evenodd" clip-rule="evenodd" fill="#7A222E" d="M42.4 0H53v85.9H42.4z"/><path fill-rule="evenodd" clip-rule="evenodd" fill="#ED1B24" d="M31.8 0h10.6v85.9H31.8z"/><path fill-rule="evenodd" clip-rule="evenodd" fill="#7A222E" d="M21.2 0h10.6v85.9H21.2z"/><path fill-rule="evenodd" clip-rule="evenodd" fill="#ED1B24" d="M10.6 0h10.6v85.9H10.6z"/><path fill-rule="evenodd" clip-rule="evenodd" fill="#7A222E" d="M0 0h10.6v85.9H0z"/><path fill-rule="evenodd" clip-rule="evenodd" fill="#7A222E" d="M0 0l84.9 84.9L0 169.7z"/><path fill-rule="evenodd" clip-rule="evenodd" fill="#ED1B24" d="M116.7 0h10.6v85.9h-10.6zM318.2 0h10.6v85.9h-10.6z"/><path fill-rule="evenodd" clip-rule="evenodd" fill="#7A222E" d="M307.6 0h10.6v85.9h-10.6z"/><path fill-rule="evenodd" clip-rule="evenodd" fill="#ED1B24" d="M297 0h10.6v85.9H297z"/><path fill-rule="evenodd" clip-rule="evenodd" fill="#7A222E" d="M286.4 0H297v85.9h-10.6z"/><path fill-rule="evenodd" clip-rule="evenodd" fill="#ED1B24" d="M275.8 0h10.6v85.9h-10.6z"/><path fill-rule="evenodd" clip-rule="evenodd" fill="#7A222E" d="M262 0h13.8v85.9H262z"/><path fill-rule="evenodd" clip-rule="evenodd" fill="#ED1B24" d="M254.5 0h10.6v85.9h-10.6z"/><path fill-rule="evenodd" clip-rule="evenodd" fill="#7A222E" d="M243.9 0h10.6v85.9h-10.6z"/><path fill-rule="evenodd" clip-rule="evenodd" fill="#ED1B24" d="M233.3 0h10.6v85.9h-10.6z"/><path fill-rule="evenodd" clip-rule="evenodd" fill="#7A222E" d="M222.7 0h10.6v85.9h-10.6z"/><path fill-rule="evenodd" clip-rule="evenodd" fill="#ED1B24" d="M212.1 0h10.6v85.9h-10.6z"/><path fill-rule="evenodd" clip-rule="evenodd" fill="#7A222E" d="M201.5 0h10.6v85.9h-10.6z"/><path fill-rule="evenodd" clip-rule="evenodd" fill="#ED1B24" d="M190.9 0h10.6v85.9h-10.6z"/><path fill-rule="evenodd" clip-rule="evenodd" fill="#7A222E" d="M180.3 0h10.6v85.9h-10.6z"/><path fill-rule="evenodd" clip-rule="evenodd" fill="#ED1B24" d="M169.7 0h10.6v19.6h-10.6zM159.1 0h10.6v19.6h-10.6z"/><path fill-rule="evenodd" clip-rule="evenodd" fill="#7A222E" d="M169.7 137.4h10.6v32.3h-10.6zM159.1 137.4h10.6v32.3h-10.6zM148.5 0h10.6v85.9h-10.6z"/><path fill-rule="evenodd" clip-rule="evenodd" fill="#ED1B24" d="M137.9 0h10.6v85.9h-10.6z"/><path fill-rule="evenodd" clip-rule="evenodd" fill="#7A222E" d="M127.3 0h10.6v85.9h-10.6zM328.8 0h10.6v85.9h-10.6z"/><path fill-rule="evenodd" clip-rule="evenodd" fill="#ED1B24" d="M106.1 84.9h10.6v84.9h-10.6z"/><path fill-rule="evenodd" clip-rule="evenodd" fill="#7A222E" d="M93 84.9h13.1v84.9H93z"/><path fill-rule="evenodd" clip-rule="evenodd" fill="#ED1B24" d="M84.8 84.9h10.6v84.9H84.8z"/><path fill-rule="evenodd" clip-rule="evenodd" fill="#7A222E" d="M116.7 84.9h10.6v84.9h-10.6zM318.2 84.9h10.6v84.9h-10.6z"/><path fill-rule="evenodd" clip-rule="evenodd" fill="#ED1B24" d="M307.6 84.9h10.6v84.9h-10.6z"/><path fill-rule="evenodd" clip-rule="evenodd" fill="#7A222E" d="M297 84.9h10.6v84.9H297z"/><path fill-rule="evenodd" clip-rule="evenodd" fill="#ED1B24" d="M286.4 84.9H297v84.9h-10.6z"/><path fill-rule="evenodd" clip-rule="evenodd" fill="#7A222E" d="M275.8 84.9h10.6v84.9h-10.6z"/><path fill-rule="evenodd" clip-rule="evenodd" fill="#ED1B24" d="M262 84.9h13.8v84.9H262z"/><path fill-rule="evenodd" clip-rule="evenodd" fill="#7A222E" d="M254.5 84.9h10.6v84.9h-10.6z"/><path fill-rule="evenodd" clip-rule="evenodd" fill="#ED1B24" d="M243.9 84.9h10.6v84.9h-10.6z"/><path fill-rule="evenodd" clip-rule="evenodd" fill="#7A222E" d="M233.3 84.9h10.6v84.9h-10.6z"/><path fill-rule="evenodd" clip-rule="evenodd" fill="#ED1B24" d="M222.7 84.9h10.6v84.9h-10.6z"/><path fill-rule="evenodd" clip-rule="evenodd" fill="#7A222E" d="M212.1 84.9h10.6v84.9h-10.6z"/><path fill-rule="evenodd" clip-rule="evenodd" fill="#ED1B24" d="M201.5 84.9h10.6v84.9h-10.6z"/><path fill-rule="evenodd" clip-rule="evenodd" fill="#7A222E" d="M190.9 84.9h10.6v84.9h-10.6z"/><path fill-rule="evenodd" clip-rule="evenodd" fill="#ED1B24" d="M180.3 84.9h10.6v84.9h-10.6zM148.5 84.9h10.6v84.9h-10.6z"/><path fill-rule="evenodd" clip-rule="evenodd" fill="#7A222E" d="M137.9 84.9h10.6v84.9h-10.6z"/><path fill-rule="evenodd" clip-rule="evenodd" fill="#ED1B24" d="M127.3 84.9h10.6v84.9h-10.6zM328.8 84.9h10.6v84.9h-10.6z"/><path fill-rule="evenodd" clip-rule="evenodd" fill="#ED1B24" d="M169.744 169.677L84.892 84.825 169.744-.027l84.852 84.852z"/><path fill-rule="evenodd" clip-rule="evenodd" fill="#7A222E" d="M339.4 0v169.7l-84.8-84.8z"/></svg>