<svg xmlns="http://www.w3.org/2000/svg" viewBox="0 0 320 320"><path fill="#7A222E" d="M0 310h320v10H0zM0 0h320v10H0zM0 20h320v10H0zM0 40h320v10H0zM0 60h320v10H0z"/><g fill="#ED1B24"><path d="M0 10h320v10H0zM0 30h320v10H0zM0 50h320v10H0zM0 70h320v10H0z"/></g><path fill="#ED1B24" d="M0 90h320v10H0z"/><path fill="#7A222E" d="M0 80h320v10H0zM0 100h320v10H0z"/><path fill="#ED1B24" d="M0 110h320v10H0zM0 130h320v10H0z"/><path fill="#7A222E" d="M0 120h320v10H0zM0 140h320v10H0z"/><path fill="#ED1B24" d="M0 150h320v10H0z"/><path fill="#7A222E" d="M0 170h320v10H0z"/><path fill="#ED1B24" d="M0 160h320v10H0zM0 180h320v10H0z"/><path fill="#7A222E" d="M0 190h320v10H0zM0 210h320v10H0z"/><path fill="#ED1B24" d="M0 200h320v10H0zM0 220h320v10H0z"/><path fill="#7A222E" d="M0 230h320v10H0zM0 250h320v10H0z"/><path fill="#ED1B24" d="M0 240h320v10H0zM0 260h320v10H0z"/><path fill="#7A222E" d="M0 270h320v10H0zM0 290h320v10H0z"/><path fill="#ED1B24" d="M0 280h320v10H0zM0 300h320v10H0zM80 310h160v10H80z"/><path fill="#7A222E" d="M80 10h160v10H80z"/><path fill="#ED1B24" d="M80 0h160v10H80zM80 20h160v10H80z"/><path fill="#7A222E" d="M80 30h160v10H80zM80 50h160v10H80z"/><path fill="#ED1B24" d="M80 40h160v10H80zM80 60h160v10H80z"/><path fill="#7A222E" d="M80 70h160v10H80zM80 90h160v10H80z"/><path fill="#ED1B24" d="M80 80h160v10H80zM80 100h160v10H80z"/><path fill="#7A222E" d="M80 110h160v10H80zM80 130h160v10H80z"/><path fill="#ED1B24" d="M80 120h160v10H80zM80 140h160v10H80z"/><path fill="#7A222E" d="M80 150h160v10H80z"/><path fill="#ED1B24" d="M80 170h160v10H80z"/><path fill="#7A222E" d="M80 160h160v10H80zM80 180h160v10H80z"/><path fill="#ED1B24" d="M80 190h160v10H80zM80 210h160v10H80z"/><path fill="#7A222E" d="M80 200h160v10H80zM80 220h160v10H80z"/><path fill="#ED1B24" d="M80 230h160v10H80zM80 250h160v10H80z"/><path fill="#7A222E" d="M80 240h160v10H80zM80 260h160v10H80z"/><path fill="#ED1B24" d="M80 270h160v10H80zM80 290h160v10H80z"/><path fill="#7A222E" d="M80 280h160v10H80zM80 300h160v10H80z"/><g fill-rule="evenodd" clip-rule="evenodd"><path fill="#ED1B24" d="M159.954 160l79.973-79.973L319.9 160l-79.973 79.974z"/><path fill="#7A222E" d="M320 320H160l80-80zM320 0l-80 80-80-80z"/></g><g fill-rule="evenodd" clip-rule="evenodd"><path fill="#7A222E" d="M-.045 160l79.973-79.974L159.9 160l-79.973 79.973z"/><path fill="#ED1B24" d="M160 320H0l80-80zM160 0L80 80 0 0z"/></g></svg>