<svg id="Слой_1" xmlns="http://www.w3.org/2000/svg" viewBox="0 0 115.6 85.5"><style>.st0{fill:#eb0029}.st1{fill:none;stroke:#fff;stroke-width:1.9368;stroke-miterlimit:10}.st2{fill:#fff}</style><path class="st0" d="M57.3 83.6c-14.8-.2-28.7-4.5-39.2-12.2C7.5 63.5 1.8 53.1 1.9 42.1 2 31.2 7.9 21 18.5 13.4 28.9 6 42.7 1.9 57.4 1.9h.9c14.8.2 28.7 4.5 39.1 12.2 10.6 7.8 16.4 18.2 16.3 29.3-.1 10.9-6 21.1-16.6 28.7-10.4 7.4-24.2 11.5-38.8 11.5h-1z"/><path class="st0" d="M57.4 3.8h.9c29.7.3 53.7 18 53.5 39.6-.2 21.3-24.1 38.3-53.6 38.3h-.9C27.5 81.4 3.5 63.6 3.8 42.1 4 20.8 27.9 3.8 57.4 3.8m0-3.8c-15 0-29.2 4.2-39.9 11.9C6.3 19.8.1 30.6 0 42.1c-.1 11.7 5.9 22.6 17 30.8 10.7 7.9 25 12.4 40.3 12.6h.9c15 0 29.2-4.2 39.9-11.9 11.1-7.9 17.3-18.7 17.4-30.2.1-11.7-5.9-22.6-17-30.8C87.8 4.6 73.5.2 58.3 0h-.9z"/><path class="st1" d="M57.3 81c-14.3-.2-27.7-4.3-37.7-11.8-9.9-7.3-15.3-17-15.2-27.1.2-20.8 24-37.7 52.9-37.7h.9c14.5.2 28 4.4 38 12 9.7 7.3 15 16.9 14.9 26.9-.2 20.8-24 37.7-52.9 37.7h-.9z"/><path class="st2" d="M36 68.9c-1.7 0-3.2-1.3-3.2-3.1s1.4-3.1 3.1-3.1c1.3 0 2.1.6 2.6 1.3l-1.2.8c-.2-.4-.6-.8-1.3-.8-.9 0-1.4.7-1.4 1.7s.6 1.7 1.5 1.7c.8 0 1.2-.4 1.4-.8l1.2.8c-.6 1-1.4 1.5-2.7 1.5zM40.8 65.7c0-1.8 1.5-3.1 3.3-3.1s3.3 1.3 3.3 3.1-1.5 3.1-3.3 3.1-3.3-1.2-3.3-3.1zm4.8 0c0-1-.6-1.7-1.6-1.7s-1.6.7-1.6 1.7.6 1.7 1.6 1.7 1.6-.7 1.6-1.7zM49.6 65.7c0-1.8 1.5-3.1 3.3-3.1s3.3 1.3 3.3 3.1-1.5 3.1-3.3 3.1-3.3-1.2-3.3-3.1zm4.8 0c0-1-.6-1.7-1.6-1.7s-1.6.7-1.6 1.7.6 1.7 1.6 1.7c1.1 0 1.6-.7 1.6-1.7zM62.3 62.7H64l-2 2.6 2.3 3.4h-1.9L61 66.5l-.5.6v1.6h-1.6v-6.1h1.6v2.5l1.8-2.4zM66.6 62.7h1.6v6.1h-1.6v-6.1zM71.3 62.7h4.3v1.4H73v1h2.2v1.3H73v1h2.8v1.4h-4.4v-6.1zM77.9 67.7l1.2-.9c.3.4.7.7 1.3.7.5 0 .8-.1.8-.5 0-.3-.2-.4-.6-.5l-.7-.2c-.9-.3-1.5-.8-1.5-1.8 0-1.2 1-1.8 2.1-1.8s1.7.4 2.1.8l-.9 1c-.2-.3-.6-.4-1.1-.4-.4 0-.6.2-.6.4s.1.3.4.4l.8.3c1.2.4 1.6 1 1.6 1.8 0 1.1-.7 1.9-2.3 1.9-1.5 0-2.3-.7-2.6-1.2z"/><g><path class="st2" d="M49.6 20.2c-2.1.1-4.3.3-6.4.6-.5.1-.7.3-.8.8l-3.6 32.7c-.1.5.1.7.6.6 1.5-.2 2.9-.4 4.4-.6.4 0 .7-.3.7-.7.1-1.7.3-3.5.4-5.2 0-.1 0-.5.1-.7.1-.8.1-.8.5-.8.3 0 .6-.1 1-.1.3 0 .6-.1 1-.1s.4 0 .5.7c0 .1.1.6.1.7.1 1.7.3 3.4.4 5.1.1.4.3.6.7.6 1.5-.1 3-.2 4.4-.2.5 0 .7-.2.6-.7-1.2-10.7-2.4-21.4-3.7-32-.2-.5-.5-.7-.9-.7zm-2.3 23.3c-.6.1-1.2.1-1.9.2-.2 0-.2 0-.2-.7v-.2c.2-4.2.5-8.5.7-12.7 0-.7.1-.9.4-.9h.1c.3 0 .4.1.4.7v.1c.2 4.3.4 8.5.6 12.8.1.6.1.6-.1.7zM36.4 21.8c-.6.1-1.3.2-1.9.3-2.1.4-3 1.7-3.6 4.2-1 4.8-2 9.7-3.1 14.5 0 .1-.2.2-.2.1l-3-12.9c-.6-2.2-1.5-3.1-3.6-2.5-.6.2-1.2.4-1.9.6-.4.1-.7.5-.7.9v32.2c0 .4.3.6.7.5 1.5-.5 3-.9 4.5-1.4.4-.1.7-.5.7-.9V43.3c0-.1.2-.2.2-.1 1 3.5 1.9 7.1 2.9 10.7.1.1.1.2.2.2s.2-.1.2-.3c1-4 1.9-8.1 2.9-12.1 0-.1.2-.2.2 0v14.1c0 .4.3.6.7.5 1.5-.3 3.1-.6 4.6-.9.4-.1.7-.4.7-.8V22.4c.2-.5-.1-.7-.5-.6zM66.8 21.1c.2-.4-.1-.9-.6-.9-4.5-.3-9-.4-13.6-.2-.3 0-.6.3-.6.6.2 1.3.3 2.5.5 3.8 0 .7.6 1.2 1.3 1.2H56c.3 0 .6.3.6.6v26.7c0 .2.1.4.2.5.1.1.3.2.5.2h3.8c.7 0 1.3-.5 1.3-1.2V25.7h.6c1 0 1.9-.5 2.3-1.3l1.5-3.3zM95.7 35.3c.3.1.5.2.8.3.5.1.6 0 .6-.5v-3.2c0-.8-.2-1.7-.5-2.5s-.7-1.6-1.3-2.3c-.5-.7-1.2-1.3-1.9-1.9-.7-.5-1.5-.9-2.3-1.1-.6-.2-1.2-.3-1.8-.5-.8-.2-1.6-.2-2.3-.1-.7.1-1.4.4-1.9.9-.5.4-1 1-1.3 1.6-.3.7-.5 1.4-.5 2.2v5.7c0 .7.1 1.3.3 1.8.2.5.6 1 1 1.6 2.1 2 4.1 4.1 6.2 6.2.3.3.5.7.6 1 .1.3.2.7.2 1.2V52c0 .3-.1.6-.3.7-.3.3-.6.3-.9.2-.1 0-.3-.1-.4-.1-.3-.1-.6-.3-.8-.5-.2-.3-.3-.6-.3-.9v-2.1c-.1-1.3-.8-3.3-4.2-4.1-.3-.1-.6-.1-.8-.2-.4 0-.6.3-.6.7v4.6c0 .8.2 1.6.5 2.4.3.8.8 1.5 1.3 2.2.5.7 1.2 1.2 1.9 1.7s1.5.8 2.3 1.1c.6.2 1.2.3 1.8.5.8.2 1.6.3 2.3.2.7-.1 1.4-.3 1.9-.7.5-.4 1-.9 1.3-1.5.3-.6.5-1.4.5-2.2v-8.2c-.1-.6-.2-1.1-.3-1.7-.1-.5-.5-1.1-1-1.7-2.1-2.2-4.1-4.4-6.2-6.5-.3-.3-.4-.6-.5-.9-.1-.3-.2-.6-.2-1v-4.4c0-.3.1-.6.3-.7.2-.2.5-.2.8-.1.1 0 .3.1.4.1.3.1.6.3.8.6.2.2.3.5.3.8V30.6c.1 1.4.6 3.6 4.2 4.7zM79.8 21.8c-3-.5-5.9-.9-8.9-1.2-1-.1-1.9.4-2.3 1.2-.5 1.1-1 2.1-1.5 3.2-.2.4.1.9.6.9.8.1 1.6.1 2.4.2.4 0 .8.4.8.8v26.5c0 .2.1.4.2.5.1.1.3.2.5.2 1.4.2 2.9.3 4.3.5.4.1.7-.2.7-.6V26.8c.3 0 .6.1.9.1 2.3.1 3-1.5 3.2-2.9v-1.5c-.2-.2-.5-.6-.9-.7zM83.5 16.9c-.3-.2-.7-.4-1.1-.5-1.4-.3-2.5.7-2.5 2 0 1.2.9 2.4 2 2.8.4.2.4.6.5.9.1 1.4-.3 2.4-.2 2.5.1.1.2 0 .3-.1.9-1.1 2.5-3.5 2.5-5.2-.1-.9-.7-1.9-1.5-2.4z"/></g></svg>